<svg id="icons" enable-background="new 0 0 64 64" height="512" viewBox="0 0 64 64" width="512" xmlns="http://www.w3.org/2000/svg"><g><g><path d="m40.58 28.953c-.91 2.65-2.42 5.149-4.54 7.27-.25.25-.521.5-.79.74v.04h-5.25v-.03c1.41-.729 2.74-1.69 3.92-2.87 1.79-1.789 3.07-3.899 3.83-6.14z" fill="#e6e9ed"/></g><g><path d="m28.26 24.203.71.71-4.95 4.94-5.649-5.65c-.4-.39-.4-1.03 0-1.42l3.53-3.53c.39-.39 1.01-.39 1.409 0z" fill="#e6e9ed"/></g><g><path d="m47.34 2.293c.79.78.79 2.04 0 2.83l-19.08 19.08-4.95-4.95h.011l4.359-4.359c.79.779 2.061.77 2.84-.011l13.29-13.3c.78-.78 2.051-.78 2.83 0z" fill="#ffd2a6"/></g><g><path d="m30 36.973v.03h-.68v-.01l-5.301-7.14 4.95-4.94 8.78 3.05c-.76 2.24-2.04 4.351-3.83 6.14-1.179 1.179-2.509 2.14-3.919 2.87z" fill="#ccd1d9"/></g><g><path d="m18 55.012v-2.01c0-1.649-1.34-3-3-3h33.99 3 3.01c1.65 0 3 1.351 3 3v5 2c0 1.66-1.35 3-3 3h-40c1.66 0 3-1.34 3-3z" fill="#965353"/></g><g><path d="m15.01 42.003v-2c0-1.66-1.35-3-3-3h17.31.68 5.25 16.74c1.66 0 3 1.34 3 3v5 1.999c0 1.66-1.34 3-3 3h-3-33.99-1.99-1c1.65 0 3-1.34 3-3z" fill="#844747"/></g><g><path d="m15.01 42.003v4.999c0 1.66-1.35 3-3 3h-.01c-1.66-.01-2.99-1.34-2.99-3v-6.999c0-1.66 1.34-3 3-3 1.65 0 3 1.34 3 3z" fill="#ffd2a6"/></g><g><path d="m12 53.002c0-1.649-1.33-2.99-2.99-3h2.99.01 1 1.99c-1.66 0-3 1.351-3 3z" fill="#844747"/></g><g><path d="m12.01 59.999c0 1.649 1.33 2.99 2.99 3h-2.99-.01-1-1.99c1.66 0 3-1.351 3-3z" fill="#844747"/></g><g><path d="m18 55.012v4.99c0 1.66-1.34 3-3 3s-3-1.34-3-3v-7c0-1.649 1.34-3 3-3s3 1.351 3 3z" fill="#ffd2a6"/></g><g><path d="m12 53.002v7c0 1.66-1.34 3-3 3-1.65 0-3-1.34-3-3v-7c0-1.649 1.35-3 3-3h.01c1.66.01 2.99 1.351 2.99 3z" fill="#f7c292"/></g></g><g><g><path d="m15.007 40.997c-.553 0-1-.447-1-1 0-1.104-.897-2.002-2-2.002s-2 .898-2 2.002c0 .553-.447 1-1 1s-1-.447-1-1c0-2.207 1.794-4.002 4-4.002s4 1.795 4 4.002c0 .553-.447 1-1 1z"/></g><g><path d="m12.007 51.001c-2.206 0-4-1.794-4-4 0-.553.447-1 1-1s1 .447 1 1c0 1.103.897 2 2 2s2-.897 2-2c0-.553.447-1 1-1s1 .447 1 1c0 2.206-1.794 4-4 4z"/></g><g><path d="m9.007 48.001c-.553 0-1-.447-1-1v-7.004c0-.553.447-1 1-1s1 .447 1 1v7.004c0 .553-.447 1-1 1z"/></g><g><path d="m15.007 48.001c-.553 0-1-.447-1-1v-7.004c0-.553.447-1 1-1s1 .447 1 1v7.004c0 .553-.447 1-1 1z"/></g><g><path d="m54.991 40.997c-.553 0-1-.447-1-1 0-1.104-.897-2.002-2-2.002-.553 0-1-.447-1-1s.447-1 1-1c2.206 0 4 1.795 4 4.002 0 .553-.447 1-1 1z"/></g><g><path d="m51.991 51.001c-.553 0-1-.447-1-1s.447-1 1-1c1.103 0 2-.897 2-2 0-.553.447-1 1-1s1 .447 1 1c0 2.206-1.794 4-4 4z"/></g><g><path d="m54.991 48.001c-.553 0-1-.447-1-1v-7.004c0-.553.447-1 1-1s1 .447 1 1v7.004c0 .553-.447 1-1 1z"/></g><g><path d="m51.991 37.995h-39.984c-.553 0-1-.447-1-1s.447-1 1-1h39.984c.553 0 1 .447 1 1s-.447 1-1 1z"/></g><g><path d="m54.995 51.001h-41.987c-.553 0-1-.447-1-1s.447-1 1-1h41.987c.553 0 1 .447 1 1s-.447 1-1 1z"/></g><g><path d="m33.001 43.001h-17.994c-.553 0-1-.447-1-1s.447-1 1-1h17.994c.553 0 1 .447 1 1s-.447 1-1 1z"/></g><g><path d="m54.991 46.001h-14c-.553 0-1-.447-1-1s.447-1 1-1h14c.553 0 1 .447 1 1s-.447 1-1 1z"/></g><g><path d="m12.005 54.003c-.553 0-1-.447-1-1 0-1.103-.897-2-2-2s-2 .897-2 2c0 .553-.447 1-1 1s-1-.447-1-1c0-2.206 1.794-4 4-4s4 1.794 4 4c0 .553-.447 1-1 1z"/></g><g><path d="m9.005 64.005c-2.206 0-4-1.794-4-4 0-.553.447-1 1-1s1 .447 1 1c0 1.103.897 2 2 2s2-.897 2-2c0-.553.447-1 1-1s1 .447 1 1c0 2.206-1.794 4-4 4z"/></g><g><path d="m6.005 61.005c-.553 0-1-.447-1-1v-7.002c0-.553.447-1 1-1s1 .447 1 1v7.002c0 .553-.447 1-1 1z"/></g><g><path d="m12.005 61.005c-.553 0-1-.447-1-1v-7.002c0-.553.447-1 1-1s1 .447 1 1v7.002c0 .553-.447 1-1 1z"/></g><g><path d="m18.002 54.003c-.553 0-1-.447-1-1 0-1.103-.897-2-2-2s-2 .897-2 2c0 .553-.447 1-1 1s-1-.447-1-1c0-2.206 1.794-4 4-4s4 1.794 4 4c0 .553-.447 1-1 1z"/></g><g><path d="m15.002 64.005c-2.206 0-4-1.794-4-4 0-.553.447-1 1-1s1 .447 1 1c0 1.103.897 2 2 2s2-.897 2-2c0-.553.447-1 1-1s1 .447 1 1c0 2.206-1.794 4-4 4z"/></g><g><path d="m12.002 61.005c-.553 0-1-.447-1-1v-7.002c0-.553.447-1 1-1s1 .447 1 1v7.002c0 .553-.447 1-1 1z"/></g><g><path d="m18.002 61.005c-.553 0-1-.447-1-1v-7.002c0-.553.447-1 1-1s1 .447 1 1v7.002c0 .553-.447 1-1 1z"/></g><g><path d="m57.995 54.003c-.553 0-1-.447-1-1 0-1.103-.897-2-2-2-.553 0-1-.447-1-1s.447-1 1-1c2.206 0 4 1.794 4 4 0 .553-.447 1-1 1z"/></g><g><path d="m54.995 64.005c-.553 0-1-.447-1-1s.447-1 1-1c1.103 0 2-.897 2-2 0-.553.447-1 1-1s1 .447 1 1c0 2.206-1.794 4-4 4z"/></g><g><path d="m57.995 61.005c-.553 0-1-.447-1-1v-7.002c0-.553.447-1 1-1s1 .447 1 1v7.002c0 .553-.447 1-1 1z"/></g><g><path d="m48.989 51.003h-39.984c-.553 0-1-.447-1-1s.447-1 1-1h39.984c.553 0 1 .447 1 1s-.447 1-1 1z"/></g><g><path d="m54.995 64.005h-45.99c-.553 0-1-.447-1-1s.447-1 1-1h45.99c.553 0 1 .447 1 1s-.447 1-1 1z"/></g><g><path d="m57.995 59.005h-14c-.553 0-1-.447-1-1s.447-1 1-1h14c.553 0 1 .447 1 1s-.447 1-1 1z"/></g><g><path d="m27.999 56.007h-9.997c-.553 0-1-.447-1-1s.447-1 1-1h9.997c.553 0 1 .447 1 1s-.447 1-1 1z"/></g><g><g><path d="m24.021 30.853c-.256 0-.512-.098-.707-.293-.391-.391-.391-1.024 0-1.414l4.948-4.947c.391-.391 1.023-.391 1.414 0s.391 1.024 0 1.414l-4.948 4.947c-.195.195-.451.293-.707.293z"/></g><g><path d="m18.367 23.782c-.256 0-.512-.098-.707-.292-.391-.391-.391-1.024 0-1.415l3.529-3.531c.391-.391 1.023-.39 1.414 0 .391.391.391 1.024 0 1.415l-3.529 3.531c-.195.195-.451.292-.707.292z"/></g><g><path d="m29.32 37.993c-.306 0-.607-.14-.804-.404l-5.3-7.14c-.329-.444-.236-1.07.207-1.399.442-.329 1.068-.237 1.398.207l5.3 7.141c.329.443.236 1.069-.207 1.398-.178.133-.387.197-.594.197z"/></g><g><path d="m40.583 29.95c-.109 0-.22-.018-.329-.056l-11.613-4.044c-.521-.182-.797-.751-.615-1.273s.751-.797 1.273-.616l11.613 4.044c.521.182.797.751.615 1.273-.143.413-.53.672-.944.672z"/></g><g><path d="m28.26 25.196c-.256 0-.512-.098-.707-.293-.391-.391-.391-1.024 0-1.414l19.085-19.08c.391-.391 1.023-.391 1.414 0s.391 1.024 0 1.414l-19.085 19.08c-.196.196-.451.293-.707.293z"/></g><g><path d="m23.314 20.253c-.256 0-.512-.098-.707-.293-.391-.39-.391-1.023 0-1.414l4.363-4.364c.391-.391 1.023-.391 1.414 0 .391.39.391 1.023 0 1.414l-4.363 4.364c-.195.195-.451.293-.707.293z"/></g><g><path d="m29.09 16.466c-.771 0-1.543-.292-2.131-.877-.392-.39-.394-1.023-.004-1.415.39-.391 1.022-.392 1.414-.003.398.396 1.044.396 1.442-.001.391-.391 1.023-.391 1.414 0s.391 1.023 0 1.414c-.587.588-1.362.882-2.135.882z"/></g><g><path d="m30.519 15.877c-.256 0-.512-.098-.707-.293-.391-.39-.391-1.023 0-1.414l13.292-13.296c.391-.391 1.023-.391 1.414 0 .391.39.391 1.023 0 1.414l-13.292 13.296c-.196.195-.452.293-.707.293z"/></g><g><path d="m47.345 6.116c-.256 0-.512-.098-.707-.293-.391-.391-.391-1.023 0-1.414s.391-1.025 0-1.416-.391-1.023 0-1.414 1.023-.391 1.414 0c1.17 1.17 1.17 3.074 0 4.244-.196.196-.451.293-.707.293z"/></g><g><path d="m46.641 2.581c-.256 0-.512-.098-.707-.293-.39-.389-1.023-.39-1.415 0-.391.391-1.023.391-1.414 0s-.391-1.023 0-1.414c1.17-1.17 3.073-1.169 4.243 0 .391.391.391 1.023 0 1.414-.196.195-.452.293-.707.293z"/></g><g><path d="m47.345 3.286c-.256 0-.513-.098-.708-.293l-.704-.705c-.39-.391-.39-1.024.001-1.414s1.024-.391 1.415.001l.704.705c.39.391.39 1.024-.001 1.414-.196.194-.451.292-.707.292z"/></g><g><path d="m21.903 20.252c-.258 0-.515-.098-.71-.293-.391-.391-.395-1.024-.004-1.415.779-.78 2.051-.779 2.832-.002.392.39.394 1.023.004 1.415-.389.392-1.021.393-1.414.003-.195.195-.452.292-.708.292z"/></g><g><path d="m28.97 25.905c-.256 0-.512-.098-.707-.292l-5.655-5.652c-.391-.391-.391-1.024 0-1.415s1.023-.39 1.414 0l5.655 5.652c.391.391.391 1.024 0 1.415-.196.195-.451.292-.707.292z"/></g><g><path d="m18.365 25.198c-.256 0-.512-.098-.707-.294-.379-.379-.587-.883-.586-1.418.001-.534.211-1.036.59-1.413.392-.389 1.024-.388 1.414.003.39.392.388 1.025-.004 1.415l-.001.001c.391.391.391 1.024 0 1.414-.195.195-.45.292-.706.292z"/></g><g><path d="m24.021 30.853c-.256 0-.512-.098-.707-.293l-5.655-5.654c-.391-.39-.391-1.023 0-1.414s1.023-.391 1.414 0l5.655 5.654c.391.39.391 1.023 0 1.414-.195.195-.451.293-.707.293z"/></g><g><path d="m35.253 37.963c-.275 0-.549-.113-.747-.335-.367-.412-.33-1.044.082-1.412.254-.227.504-.462.748-.706 1.963-1.964 3.41-4.28 4.301-6.884.18-.522.748-.8 1.271-.623.522.179.801.748.622 1.27-.991 2.896-2.599 5.469-4.779 7.651-.271.271-.549.534-.832.786-.191.169-.429.253-.666.253z"/></g><g><path d="m30 37.975c-.361 0-.71-.196-.888-.539-.255-.489-.064-1.094.426-1.348 1.349-.702 2.586-1.61 3.678-2.7 1.638-1.64 2.846-3.576 3.588-5.751.178-.522.747-.801 1.27-.624.522.178.802.747.623 1.269-.842 2.468-2.21 4.662-4.067 6.521-1.236 1.234-2.639 2.264-4.169 3.059-.148.076-.306.113-.461.113z"/></g></g></g></svg>