<svg height="512" viewBox="0 0 64 64" width="512" xmlns="http://www.w3.org/2000/svg"><g id="Filled_outline" data-name="Filled outline"><path d="m3 3h58v4h-58z" fill="#66342e"/><path d="m11 61h-8v-4h10a4.333 4.333 0 0 0 -2 4z" fill="#d3843d"/><path d="m53 61h8v-4h-10a4.333 4.333 0 0 1 2 4z" fill="#d3843d"/><path d="m61 57h-58v-2l2-2h54l2 2z" fill="#66342e"/><path d="m5 7h54v46h-54z" fill="#ad6327"/><path d="m9 11h46v12h-46z" fill="#f9bb4b"/><circle cx="20" cy="17" fill="#f4f4e6" r="2"/><circle cx="45" cy="17" fill="#f4f4e6" r="2"/><path d="m9 27h23v22h-23z" fill="#f9bb4b"/><path d="m32 27h23v22h-23z" fill="#ffd782"/><path d="m24 34h4v8h-4z" fill="#66342e"/><path d="m36 34h4v8h-4z" fill="#66342e"/><g fill="#ad6327"><path d="m52 46h-4v-2h2v-6h2z"/><path d="m44 44h2v2h-2z"/><path d="m14 36h-2v-6h7v2h-5z"/></g><path d="m2 8h2v44.586l-1.707 1.707a1 1 0 0 0 -.293.707v6a1 1 0 0 0 1 1h8a1 1 0 0 0 1-1 3.527 3.527 0 0 1 1.292-3h37.414a3.526 3.526 0 0 1 1.294 3 1 1 0 0 0 1 1h8a1 1 0 0 0 1-1v-6a1 1 0 0 0 -.293-.707l-1.707-1.707v-44.586h2v-6h-60zm8.068 52h-6.068v-2h6.72a5.771 5.771 0 0 0 -.652 2zm49.932 0h-6.068a5.771 5.771 0 0 0 -.652-2h6.72zm0-4h-56v-.586l1.414-1.414h53.172l1.414 1.414zm-54-4v-44h52v44zm-2-48h56v2h-56z"/><path d="m8 24h48v-14h-48zm2-12h44v10h-44z"/><path d="m20 14a3 3 0 1 0 3 3 3 3 0 0 0 -3-3zm0 4a1 1 0 1 1 1-1 1 1 0 0 1 -1 1z"/><path d="m45 14a3 3 0 1 0 3 3 3 3 0 0 0 -3-3zm0 4a1 1 0 1 1 1-1 1 1 0 0 1 -1 1z"/><path d="m8 26v24h48v-24zm23 22h-21v-20h21zm23 0h-21v-20h21z"/><path d="m29 33h-6v10h6zm-2 8h-2v-6h2z"/><path d="m41 33h-6v10h6zm-2 8h-2v-6h2z"/><path d="m52 38h-2v6h-2v2h4z"/><path d="m44 44h2v2h-2z"/><path d="m14 32h5v-2h-7v6h2z"/></g></svg>